<svg width="56" height="56" viewBox="0 0 56 56" fill="none" xmlns="http://www.w3.org/2000/svg">
<rect x="1" y="1" width="54" height="54" rx="27" stroke="#183B56" stroke-width="2"/>
<path d="M29.0625 23.0938C29.375 23.4062 29.3438 23.875 29.0625 24.1875L25.2812 27.75H34.25C34.6875 27.75 35 28.0938 35 28.5V29.5C35 29.9375 34.6875 30.25 34.25 30.25H25.2812L29.0625 33.8438C29.3438 34.1562 29.3438 34.625 29.0625 34.9375L28.375 35.625C28.0625 35.9062 27.5938 35.9062 27.3125 35.625L21.2188 29.5312C20.9375 29.25 20.9375 28.7812 21.2188 28.4688L27.3125 22.4062C27.5938 22.125 28.0625 22.125 28.375 22.4062L29.0625 23.0938Z" fill="#183B56"/>
</svg>
