<svg width="54" height="56" viewBox="0 0 54 56" fill="none" xmlns="http://www.w3.org/2000/svg">
<rect x="1" y="1" width="52" height="54" rx="26" stroke="#959EAD" stroke-width="2"/>
<path d="M25.2544 34.9375C24.9419 34.625 24.9731 34.1562 25.2544 33.8438L29.0356 30.25H20.0356C19.6294 30.25 19.2856 29.9375 19.2856 29.5V28.5C19.2856 28.0938 19.6294 27.75 20.0356 27.75H29.0356L25.2544 24.1875C24.9731 23.875 24.9419 23.4062 25.2544 23.0938L25.9419 22.4062C26.2231 22.125 26.7231 22.125 27.0044 22.4062L33.0669 28.5C33.3794 28.7812 33.3794 29.25 33.0669 29.5312L27.0044 35.625C26.7231 35.9062 26.2544 35.9062 25.9419 35.625L25.2544 34.9375Z" fill="#959EAD"/>
</svg>
